<svg id="Layer_1" data-name="Layer 1" xmlns="http://www.w3.org/2000/svg" xmlns:xlink="http://www.w3.org/1999/xlink" viewBox="0 0 1390.79 297.2"><defs><style>.cls-1{fill:url(#linear-gradient);}.cls-2{fill:url(#linear-gradient-2);}.cls-3{fill:url(#linear-gradient-3);}.cls-4{fill:url(#linear-gradient-4);}.cls-5{fill:url(#linear-gradient-5);}.cls-6{fill:url(#linear-gradient-6);}.cls-7{fill:url(#linear-gradient-7);}.cls-8{fill:url(#linear-gradient-8);}.cls-9{fill:url(#linear-gradient-9);}.cls-10{fill:#c79854;}.cls-11{fill:#d9a964;}.cls-12{fill:#efb46e;}.cls-13{fill:#e6b46d;}.cls-14{fill:#cb9a53;}.cls-15{fill:#c59754;}.cls-16{fill:url(#linear-gradient-10);}.cls-17{fill:url(#linear-gradient-11);}.cls-18{fill:#bf904c;}</style><linearGradient id="linear-gradient" x1="164.23" y1="186.59" x2="293.46" y2="186.59" gradientUnits="userSpaceOnUse"><stop offset="0" stop-color="#c3934d"/><stop offset="1" stop-color="#f4bc72"/></linearGradient><linearGradient id="linear-gradient-2" x1="770.56" y1="186.82" x2="991.7" y2="186.82" xlink:href="#linear-gradient"/><linearGradient id="linear-gradient-3" x1="1362.68" y1="153.93" x2="1389.74" y2="153.93" xlink:href="#linear-gradient"/><linearGradient id="linear-gradient-4" x1="1256.16" y1="196.8" x2="1298.66" y2="196.8" xlink:href="#linear-gradient"/><linearGradient id="linear-gradient-5" x1="1044.28" y1="189.39" x2="1129.95" y2="189.39" xlink:href="#linear-gradient"/><linearGradient id="linear-gradient-6" x1="1125.95" y1="196.75" x2="1171.9" y2="196.75" xlink:href="#linear-gradient"/><linearGradient id="linear-gradient-7" x1="561.84" y1="189.39" x2="645.13" y2="189.39" xlink:href="#linear-gradient"/><linearGradient id="linear-gradient-8" x1="662.26" y1="196.92" x2="716.24" y2="196.92" xlink:href="#linear-gradient"/><linearGradient id="linear-gradient-9" x1="342.4" y1="188.2" x2="404.78" y2="188.2" xlink:href="#linear-gradient"/><linearGradient id="linear-gradient-10" x1="351.19" y1="182.18" x2="409.62" y2="182.18" xlink:href="#linear-gradient"/><linearGradient id="linear-gradient-11" x1="426.76" y1="189.7" x2="510.06" y2="189.7" xlink:href="#linear-gradient"/></defs><path class="cls-1" d="M293.46,230.68q0,27.54-20.76,46.89t-50.15,19.36a75.8,75.8,0,0,1-34.75-8.15Q172.5,281,165,268.42a5.65,5.65,0,0,1-.77-2.9,5.8,5.8,0,0,1,5.85-5.8,5.49,5.49,0,0,1,4.39,2.17q17.33,22,46.68,22,24.24,0,40.82-14.93t16.56-33.35q0-18.43-10.49-31a98,98,0,0,0-25.43-21.45q-14.94-8.86-29.63-17.5a97,97,0,0,1-25.18-21,43.24,43.24,0,0,1-10.51-28.92q0-16.56,13.3-28t34.29-11.43q19.8,0,34.2,14.51a5.88,5.88,0,0,1,1.73,4.12v1.16a5.76,5.76,0,0,1-9.6,4.31,40.61,40.61,0,0,0-28.19-11,32.27,32.27,0,0,0-21.47,7.92q-9.33,8-9.33,19.6t10.5,21.47a127.22,127.22,0,0,0,25.19,18q14.7,8.17,29.63,17.5A90.55,90.55,0,0,1,283,197.56,54.93,54.93,0,0,1,293.46,230.68Z"/><path class="cls-2" d="M991.7,81.85v210H976.77V239.54a98.07,98.07,0,0,1-39.19,42,108.38,108.38,0,0,1-56,15.4q-45.74,0-78.39-32.43t-32.65-77.68q0-45.24,32.65-77.68T881.6,76.72q29.85,0,57.15,15.86t38,42V81.85ZM785.49,187.29q0,39.19,28.69,67.88t68.12,28.7q39.42,0,67.41-28.7t28-68.11q0-39.42-28.23-68.35T882.06,89.78q-39.18,0-67.88,29.16T785.49,187.29Z"/><path class="cls-3" d="M1376.21,36.13q-13.53,0-13.53-12.6t13.53-12.6q13.53,0,13.53,12.6T1376.21,36.13Zm7.47,51.32V296.93h-14.93V87.45Z"/><path class="cls-4" d="M1298.66,158.17V296.93h-1v-139q0-27-16.14-45-11.1-12.33-25.32-16.21,14.85,3.67,26.36,16.48Q1298.66,131.11,1298.66,158.17Z"/><path class="cls-5" d="M1130,84.33a83.27,83.27,0,0,0-19.64-2.21q-25.9,0-45.45,20.52t-19.54,55.53V296.93h-1v-139q0-35,19.54-55.52t45.45-20.52A82.32,82.32,0,0,1,1130,84.33Z"/><path class="cls-6" d="M1171.9,157.23v139.7h-1V157q0-24.72-17.63-43.39-12.37-13.11-27.28-17,15.52,3.71,28.33,17.27Q1171.92,132.52,1171.9,157.23Z"/><path class="cls-7" d="M645.13,81.87v.25h-.29q-34.77,0-58.37,27.06T562.88,175v122h-1V174.7q0-38.73,23.59-65.79t58.37-27Z"/><path class="cls-8" d="M716.24,175v122h-1V174.7q0-32.19-20.08-56-14.28-16.92-32.86-21.8,19.22,4.66,33.91,22.07Q716.22,142.77,716.24,175Z"/><path class="cls-9" d="M404.78,294.56q-22.17-5.64-38.78-24.68-23.6-27.07-23.6-65.79V88.47a6.63,6.63,0,0,1,8.79-6.26,6.74,6.74,0,0,0-1.11-.1,6.62,6.62,0,0,0-6.63,6.62V204.35q0,38.73,23.6,65.79Q383.25,288.74,404.78,294.56Z"/><path class="cls-10" d="M294.51,231q0,27.54-20.76,46.89T223.6,297.2A75.88,75.88,0,0,1,188.84,289q-15.28-7.76-22.79-20.35a5.67,5.67,0,0,1-.77-2.9,5.8,5.8,0,0,1,5.85-5.81,5.49,5.49,0,0,1,4.39,2.17q17.32,22,46.67,22,24.26,0,40.83-14.93t16.56-33.36q0-18.43-10.49-31a98.2,98.2,0,0,0-25.43-21.46q-14.94-8.87-29.63-17.49a97.43,97.43,0,0,1-25.19-21,43.29,43.29,0,0,1-10.5-28.93q0-16.55,13.3-28t34.28-11.43q19.82,0,34.21,14.51a5.9,5.9,0,0,1,1.72,4.13v1.15a5.76,5.76,0,0,1-9.59,4.32,40.59,40.59,0,0,0-28.19-11,32.21,32.21,0,0,0-21.47,7.93q-9.33,8-9.33,19.6t10.49,21.46a127.63,127.63,0,0,0,25.2,18q14.7,8.16,29.63,17.49A90.72,90.72,0,0,1,284,197.83,54.91,54.91,0,0,1,294.51,231Z"/><path class="cls-11" d="M992.75,82.11v210H977.82V239.81a98.07,98.07,0,0,1-39.19,42,108.51,108.51,0,0,1-56,15.4q-45.72,0-78.38-32.43T771.6,187.09q0-45.26,32.66-77.68T882.64,77q29.85,0,57.16,15.86t38,42V82.11ZM786.53,187.55q0,39.19,28.7,67.89t68.11,28.69q39.42,0,67.42-28.69t28-68.12q0-39.42-28.22-68.35T883.11,90q-39.2,0-67.88,29.16T786.53,187.55Z"/><path class="cls-12" d="M1377.26,36.39q-13.54,0-13.53-12.6t13.53-12.59q13.53,0,13.53,12.59T1377.26,36.39Zm7.46,51.32V297.2h-14.93V87.71Z"/><path class="cls-13" d="M1311.22,157.9v139h-12.56V158.17q0-27.06-16.14-45-11.51-12.81-26.36-16.48a1.68,1.68,0,0,0-.24-.06,51.38,51.38,0,0,0-13.31-1.69q-22.72,0-40.35,18.66T1184.63,157v140h-5.93v.26h-6.8v-140q0-24.72-17.62-43.39-12.81-13.56-28.33-17.27a51.39,51.39,0,0,0-13.07-1.65q-22.73,0-38.87,18t-16.14,45v139h-12.55V158.17q0-35,19.54-55.53t45.45-20.52A83.27,83.27,0,0,1,1130,84.33c.16,0,.33.07.48.12A66.08,66.08,0,0,1,1178.22,130a65.85,65.85,0,0,1,24-34.61q18-13.53,44-13.53a59.55,59.55,0,0,1,15,1.86l.55.14q16.45,4.41,29.88,18.52Q1311.22,122.92,1311.22,157.9Z"/><path class="cls-13" d="M1255.92,96.61a51.86,51.86,0,0,0-12.27-1.43q-22.71,0-40.35,18.66t-17.63,43.39v140h-6.8v-.26h5.76V157q0-24.72,17.63-43.39t40.35-18.66A51.38,51.38,0,0,1,1255.92,96.61Z"/><path class="cls-13" d="M1312.26,158.17v139h-13.6v-.26h12.56v-139q0-35-19.55-55.52-13.44-14.1-29.88-18.52,17.07,4.23,30.93,18.78Q1312.25,123.19,1312.26,158.17Z"/><path class="cls-13" d="M1126,96.57a52,52,0,0,0-12-1.39q-22.73,0-38.87,18t-16.14,45v139h-13.59v-.26h12.55v-139q0-27,16.14-45t38.87-18A51.39,51.39,0,0,1,1126,96.57Z"/><path class="cls-14" d="M728.44,174.7V296.93h-12.2V175q0-32.21-20.07-56-14.7-17.4-33.91-22.07a61.31,61.31,0,0,0-15.78-2h-.31v.3c-.44,0-.88,0-1.33,0q-28.55,0-48.63,23.8t-20.09,56V297.19H562.88V175q0-38.73,23.59-65.79t58.37-27.06h.31v-.25h1.33a79.35,79.35,0,0,1,19.62,2.37l1,.27q21.5,5.81,37.73,24.41Q728.43,136,728.44,174.7Z"/><path class="cls-14" d="M646.48,94.92a61.31,61.31,0,0,1,15.78,2,61.85,61.85,0,0,0-14.74-1.73c-.45,0-.88,0-1.33,0v-.3Z"/><path class="cls-14" d="M729.48,175V297.19H716.24v-.26h12.2V174.7q0-38.73-23.59-65.79-16.23-18.6-37.73-24.41,22.15,5.63,38.77,24.68Q729.47,136.23,729.48,175Z"/><path class="cls-15" d="M509,88.47V204.09q0,38.72-23.6,65.79t-58.65,27.05h0v.24h0a79.63,79.63,0,0,1-20.92-2.36l-1-.26q-21.52-5.82-37.73-24.42-23.61-27.07-23.6-65.79V88.73a6.62,6.62,0,0,1,6.63-6.62,6.74,6.74,0,0,1,1.11.1,6.61,6.61,0,0,1,4.46,6.26V204.09q0,32.19,20.08,56,14.7,17.37,33.89,22.06a61.44,61.44,0,0,0,15.79,2h.3v-.3c.45,0,.89,0,1.33,0q28.57,0,48.65-23.79t20.07-56V88.47a6.63,6.63,0,0,1,13.25,0Z"/><path class="cls-16" d="M409.62,282.14q-19.22-4.67-33.89-22.06-20.07-23.8-20.08-56V88.47a6.61,6.61,0,0,0-4.46-6.26,6.61,6.61,0,0,1,5.51,6.52V204.35q0,32.21,20.07,56Q391.05,277.25,409.62,282.14Z"/><path class="cls-17" d="M510.06,88.73V204.35q0,38.73-23.6,65.79-24,27.56-59.69,27h0v-.24q35,.1,58.65-27.05T509,204.09V88.47a6.61,6.61,0,0,0-4.46-6.26A6.61,6.61,0,0,1,510.06,88.73Z"/><path class="cls-18" d="M133.6,284.12V297.2q-44.22,0-75.34-22.17T27.13,218.35V97.87H0V84.71H27.13V0H47.05V84.91H129.6V98H47.05V218.35q0,28.46,25.22,47.11T133.6,284.12Z"/></svg>